<?xml version="1.0" standalone="no"?><!DOCTYPE svg PUBLIC "-//W3C//DTD SVG 1.1//EN" "http://www.w3.org/Graphics/SVG/1.1/DTD/svg11.dtd"><svg class="icon" width="200px" height="200.00px" viewBox="0 0 1024 1024" version="1.1" xmlns="http://www.w3.org/2000/svg"><path d="M512 104.727273a407.272727 407.272727 0 1 1 0 814.545454 407.272727 407.272727 0 0 1 0-814.545454z m0 69.818182a337.454545 337.454545 0 1 0 0 674.90909 337.454545 337.454545 0 0 0 0-674.90909z m-24.669091 181.108363a34.909091 34.909091 0 0 1 49.338182 0l131.677091 131.677091a34.909091 34.909091 0 0 1 0 49.338182L536.669091 668.392727a34.909091 34.909091 0 0 1-49.338182 0L355.607273 536.669091a34.909091 34.909091 0 0 1 0-49.338182zM512 429.707636L429.707636 512 512 594.292364 594.292364 512 512 429.707636z" fill="#979797" /></svg>